<svg xmlns="http://www.w3.org/2000/svg" viewBox="0 0 64 64" width="64" height="64">
  <!-- Background circle with gradient -->
  <defs>
    <linearGradient id="bg-gradient" x1="0%" y1="0%" x2="100%" y2="100%">
      <stop offset="0%" style="stop-color:#667eea;stop-opacity:1" />
      <stop offset="100%" style="stop-color:#764ba2;stop-opacity:1" />
    </linearGradient>
    <linearGradient id="heart-gradient" x1="0%" y1="0%" x2="100%" y2="100%">
      <stop offset="0%" style="stop-color:#ff6b6b;stop-opacity:1" />
      <stop offset="100%" style="stop-color:#ee5a24;stop-opacity:1" />
    </linearGradient>
    <linearGradient id="book-gradient" x1="0%" y1="0%" x2="100%" y2="100%">
      <stop offset="0%" style="stop-color:#f8f9fa;stop-opacity:1" />
      <stop offset="100%" style="stop-color:#e9ecef;stop-opacity:1" />
    </linearGradient>
  </defs>
  
  <!-- Main background circle -->
  <circle cx="32" cy="32" r="30" fill="url(#bg-gradient)" stroke="#ffffff" stroke-width="2"/>
  
  <!-- Journal book -->
  <rect x="18" y="22" width="20" height="26" rx="2" fill="url(#book-gradient)" stroke="#495057" stroke-width="1.5"/>
  
  <!-- Book spine line -->
  <line x1="21" y1="22" x2="21" y2="48" stroke="#495057" stroke-width="1"/>
  
  <!-- Journal lines -->
  <line x1="24" y1="28" x2="34" y2="28" stroke="#6c757d" stroke-width="0.8"/>
  <line x1="24" y1="31" x2="34" y2="31" stroke="#6c757d" stroke-width="0.8"/>
  <line x1="24" y1="34" x2="32" y2="34" stroke="#6c757d" stroke-width="0.8"/>
  
  <!-- Heart symbol (representing emotions) -->
  <path d="M28 40 C26 38, 22 38, 22 42 C22 45, 28 50, 28 50 C28 50, 34 45, 34 42 C34 38, 30 38, 28 40 Z" 
        fill="url(#heart-gradient)" stroke="#ffffff" stroke-width="0.5"/>
  
  <!-- Small decorative dots -->
  <circle cx="42" cy="18" r="1.5" fill="#ffd700" opacity="0.8"/>
  <circle cx="46" cy="24" r="1" fill="#ffd700" opacity="0.6"/>
  <circle cx="16" cy="16" r="1" fill="#ffd700" opacity="0.6"/>
</svg>
